<svg width="64" height="64" viewBox="0 0 36 36" fill="none" xmlns="http://www.w3.org/2000/svg">
<path d="M0.92 24.96V11.28L11.72 0.48H25.4L35.96 11.04V23.04L32.36 26.64H28.04L24.92 23.52L21.56 26.88H14.84L9.56 21.6V14.64L15.08 9.12H21.32L24.2 12L25.4 9.36H26.84V19.68C26.84 20.48 27.096 21.2 27.608 21.84C28.12 22.48 28.824 22.8 29.72 22.8C30.616 22.8 31.32 22.48 31.832 21.84C32.344 21.2 32.6 20.48 32.6 19.68V18C32.6 15.408 31.96 13.008 30.68 10.8C29.432 8.592 27.72 6.848 25.544 5.568C23.4 4.256 21.032 3.6 18.44 3.6C15.848 3.6 13.464 4.256 11.288 5.568C9.144 6.848 7.432 8.592 6.152 10.8C4.904 13.008 4.28 15.408 4.28 18C4.28 20.592 4.904 22.992 6.152 25.2C7.432 27.408 9.144 29.152 11.288 30.432C13.464 31.744 15.848 32.4 18.44 32.4C21.96 32.4 24.76 31.36 26.84 29.28H31.4L25.16 35.52H11.48L0.92 24.96ZM18.2 22.8C19.608 22.8 20.712 22.368 21.512 21.504C22.344 20.64 22.76 19.472 22.76 18C22.76 16.528 22.344 15.36 21.512 14.496C20.712 13.632 19.608 13.2 18.2 13.2C16.792 13.2 15.672 13.632 14.84 14.496C14.04 15.36 13.64 16.528 13.64 18C13.64 19.472 14.04 20.64 14.84 21.504C15.672 22.368 16.792 22.8 18.2 22.8Z" fill="#0042C2"/>
</svg>
