<?xml version="1.0" encoding="UTF-8"?><svg id="Calque_2" xmlns="http://www.w3.org/2000/svg" viewBox="0 0 905.65 114.54"><defs><style>.cls-1{fill:#1c1c1c;}</style></defs><g id="Calque_1-2"><polygon class="cls-1" points="119.89 0 92.23 12.85 103.31 20.09 103.31 101.51 92.38 112.13 131.89 112.13 119.89 101.2 119.89 0"/><path class="cls-1" d="m79.16,86.87l-.34.34c-6.96,6.96-16.24,10.8-26.14,10.8-19.9,0-35.49-15.91-35.49-36.22s15.59-36.21,35.49-36.21c9.84,0,19.42,3.94,26.28,10.79l.35.35,10.4-11.47-.3-.31c-9.47-9.93-22.52-15.39-36.73-15.39C22.65,9.54,0,32,0,61.79s22.65,52.25,52.68,52.25c14.21,0,27.3-5.52,36.87-15.54l.31-.32-10.7-11.32Z"/><path class="cls-1" d="m317.6,85.26c-9,8.07-13.04,13.42-18.16,13.42-7.53,0-12.49-7.85-12.49-22.58s4.97-22.58,12.49-22.58c5.12,0,8.75,4.64,17.95,12.92l10.56,9.66-10.35,9.17Zm8.27-78.89v49.7c-12.65-13.45-20.82-17.62-30.43-17.62-16.02,0-25.63,12.97-25.63,37.64s9.45,37.64,25.63,37.64c10.25,0,18.74-4.32,31.71-18.74-.32,5.29-.32,8.33-.32,17.14h15.86V6.37h-16.82Z"/><path class="cls-1" d="m245.94,90.23c0,2.08-.7,3.81-2.1,5.2-1.4,1.4-3.13,2.1-5.2,2.1s-3.81-.69-5.21-2.1c-1.4-1.39-2.1-3.13-2.1-5.2v-51.48h-14.6v51.48c0,3.15.54,6.06,1.62,8.72,1.08,2.66,2.61,4.98,4.6,6.97,1.98,1.98,4.3,3.51,6.97,4.59,2.65,1.08,5.56,1.62,8.72,1.62,1.17,0,2.32-.07,3.45-.2,1.13-.13,2.41-.43,3.85-.88v1.08h14.6V38.75h-14.6v51.48Z"/><path class="cls-1" d="m183.84,97.85c-3.01,5-8.22,7.5-15.64,7.5-3.01,0-5.66-.47-7.96-1.42-2.3-.94-4.28-2.61-5.92-5.02-1.65-2.4-2.89-5.68-3.74-9.83-.84-4.15-1.27-9.43-1.27-15.84,0-8.58,1.6-15.16,4.79-19.73,3.19-4.57,8.31-6.86,15.36-6.86,2.82,0,5.38.45,7.68,1.34,2.3.9,4.3,2.48,5.99,4.74,1.69,2.26,2.99,5.33,3.88,9.19.89,3.87,1.34,8.77,1.34,14.71,0,9.15-1.51,16.22-4.51,21.22m12.65-52.14c-3.44-2.96-7.5-5.08-12.17-6.35-4.67-1.27-9.6-1.91-14.78-1.91-13.39,0-23.34,3.46-29.84,10.38-6.51,6.92-9.76,16.83-9.76,29.72,0,7.06,1.04,12.97,3.11,17.72,2.08,4.75,4.83,8.57,8.28,11.44,3.44,2.87,7.47,4.9,12.09,6.07,4.62,1.18,9.48,1.76,14.57,1.76,12.92,0,22.77-3.36,29.56-10.09,6.79-6.73,10.19-16.26,10.19-28.59,0-7.34-1.02-13.46-3.04-18.36-2.03-4.89-4.76-8.82-8.2-11.79"/><path class="cls-1" d="m747.25,82.55c0,4.68,1.42,8.45,4.27,11.3,2.85,2.85,6.61,4.27,11.3,4.27s8.47-1.42,11.37-4.27c2.9-2.85,4.35-6.62,4.35-11.3v-13.65c0-4.68-1.45-8.45-4.35-11.3-2.9-2.85-6.69-4.27-11.37-4.27s-8.45,1.42-11.3,4.27c-2.85,2.85-4.27,6.62-4.27,11.3v13.65Zm-15.4,29.61V7.13h15.86v37.3l6.77-4.67c.46-.32,1-.49,1.56-.49h18.87c.61,0,1.21.2,1.69.58l14.97,11.66c.67.52,1.06,1.32,1.06,2.17v43.06c0,.84-.39,1.64-1.04,2.16l-15.98,12.65c-.49.39-1.09.59-1.71.59h-17.17c-.39,0-.78-.08-1.14-.25l-10.31-4.7c-.26-.12-.58-.02-.71.24l-2.55,4.71h-10.16Z"/><path class="cls-1" d="m508.8,112.16h39.42l-11.74-10.53.15-35.36c0-7.07-1.05-13.1-4.06-17.61-4.21-6.62-10.83-10.08-19.26-10.08-10.84,0-17.76,4.96-22.57,12.49l-.15-50.38-28.14,12.54,10.98,7.22v81.31l-10.68,10.38,39.58.02-11.59-10.53v-35.97c0-8.13,6.47-14.75,14.9-14.75,5.42,0,9.48,1.95,11.74,6.17,1.96,3.76,2.26,9.33,2.26,15.2l-.15,29.35-10.68,10.53Z"/><path class="cls-1" d="m457.85,92.85h-2.86c-2.48,1.34-4.6,2.5-8.31,3.5-3.71,1-7.53,1.5-11.43,1.5-7.71,0-14.73-2.36-21.07-7.08-2.59-1.93-4.91-4.24-6.84-6.84-4.73-6.34-7.09-13.37-7.09-21.07,0-7.01,1.95-13.45,5.86-19.33,2.42-3.64,5.51-6.83,9.1-9.32,6.07-4.23,12.75-6.34,20.04-6.34,6.86,0,12.07,1.67,17.6,5h2.86V13.58h-42.37c-.48,0-.94.19-1.28.53l-27.25,28.06c-.34.34-.53.8-.53,1.28v39.21c0,.48.19.94.53,1.28l26.53,27.67c.34.34.8.53,1.28.53h45.23v-19.28Zm135.86,19.31v-55.11c0-2.55-.5-4.97-1.5-7.25-1-2.28-2.34-4.25-4.01-5.93-1.68-1.68-3.65-3.01-5.93-4.01-2.27-1-4.69-1.5-7.25-1.5s-4.97.5-7.25,1.5c-2.27,1-4.25,2.34-5.93,4.01-1.68,1.68-3.01,3.66-4.01,5.93-1,2.28-1.5,4.69-1.5,7.25v13.54h16.29v-14.37c0-.64.23-1.18.68-1.62.45-.44,1-.66,1.66-.66s1.23.24,1.72.72c.49.48.74,1.04.74,1.68v55.83h16.3Zm-18.93-17.91c-.72-1.72-1.72-3.22-2.99-4.49-1.28-1.27-2.77-2.28-4.49-3-1.72-.72-3.54-1.08-5.45-1.08s-3.73.36-5.45,1.08c-1.72.72-3.22,1.72-4.49,3-1.28,1.28-2.28,2.78-3,4.49-.72,1.72-1.08,3.53-1.08,5.45s.36,3.73,1.08,5.45c.72,1.72,1.72,3.22,3,4.49,1.28,1.28,2.77,2.28,4.49,3,1.72.72,3.53,1.08,5.45,1.08s3.73-.36,5.45-1.08c1.72-.72,3.21-1.72,4.49-3,1.28-1.28,2.28-2.77,2.99-4.49.72-1.72,1.08-3.53,1.08-5.45s-.36-3.73-1.08-5.45m98.61-25.82c0-4.31-.3-8.03-1.04-11.45,3.57-5.35,8.48-8.63,14.28-8.63,9.22,0,12.2,8.48,12.2,24.54,0,6.39-.44,29.51-.44,31.3,0,.93-.63,2.07-1.78,3.12l-4.62,4.54v.3h32v-.3l-5.07-4.54c-1.1-.96-1.64-1.88-1.64-3.27,0-11.9.3-26.39.3-35.61,0-20.52-7.88-30.34-21.42-30.34-11.9,0-20.52,7.14-23.94,17.99-2.68-12.04-9.82-17.99-20.52-17.99-11.45,0-19.18,6.25-22.75,18.15v-16.96h-25.29v.3l5.07,5.58c.84,1.46,1.49,2.49,1.49,3.42v55.46c0,1.2-.29,2.22-1.49,3.27l-5.07,4.54v.3h32v-.3l-5.07-4.54c-1.25-1.16-1.63-2-1.63-3.27v-46.62c3.12-5.35,7.44-9.07,13.53-9.07,9.07,0,12.2,8.18,12.2,24.24,0,6.55-.45,29.96-.45,31.6,0,.91-.62,1.91-1.78,3.12l-4.62,4.54v.3h32v-.3l-5.07-4.54c-1.02-1.02-1.64-2.22-1.64-3.27,0-11.9.3-27.43.3-35.61m185.5-14.49v-14.66h-23.37c-21.21,0-36.12,15.29-36.12,36.19s14.91,36.68,35.96,36.68h23.52v-14.66h-22.59c-10.6,0-17.78-5.96-20.12-14.85h41.15v-14.34h-41.15c2.34-8.89,9.51-14.36,20.12-14.36h22.59Zm46.76,13.29v-10.18c0-2.55-.5-4.97-1.5-7.25-1-2.28-2.34-4.25-4.01-5.93-1.68-1.68-3.65-3.01-5.93-4.01-2.28-1-4.69-1.5-7.25-1.5s-4.97.5-7.25,1.5c-2.27,1-4.25,2.34-5.93,4.01-1.68,1.68-3.02,3.66-4.01,5.93-1,2.28-1.5,4.69-1.5,7.25v55.11h16.29v-55.95c0-1.52.78-2.28,2.34-2.28.65,0,1.23.22,1.72.66.49.44.74.98.74,1.62v11.02h16.3Z"/></g></svg>