<svg width="128" height="421" viewBox="0 0 128 421" fill="none" xmlns="http://www.w3.org/2000/svg">
<g clip-path="url(#clip0_715_4620)">
<path d="M63.9602 420.37L86.9492 421L82.1069 396.295L82.0217 396.937L81.7114 394.356L69.2162 388.854L63.9602 420.37Z" fill="#15B64C"/>
<path d="M24.8866 394.156L23.0372 419.564L46.5068 420.564L38.6958 388.442L21.7536 294.598L24.8866 394.156Z" fill="#15B64C"/>
<path d="M63.5533 244.873L69.2899 388.2L80.9152 393.326L81.627 393.641L63.5533 244.873Z" fill="#15B64C"/>
<path d="M39.6819 381.964L62.2998 236.044L45.4489 260.797L43.7273 297.015L39.6819 381.964Z" fill="#15B64C"/>
<path d="M63.2301 234.687L82.052 391.387L106.446 202.723L94.2309 189.161L63.2301 234.687Z" fill="#15B64C"/>
<path d="M21.6143 289.944L25.2765 310.243L38.8302 385.358L42.8331 301.305L44.7676 260.725L31.6579 196.227L21.6143 289.944Z" fill="#15B64C"/>
<path d="M8.12702 238.626L23.6943 247.969L14.7275 222.477L8.12702 238.626Z" fill="#15B64C"/>
<path d="M4.56272 190.161L7.93899 237.123L14.0893 222.265L14.3752 221.471L14.3995 221.519L14.7828 220.58L19.9597 207.928L24.1998 120.591L25.4834 95.7712L4.56272 190.161Z" fill="#15B64C"/>
<path d="M0.000101089 116.186L4.41663 187.683L24.1997 98.4194L25.3799 93.2021L0.000101089 116.186Z" fill="#15B64C"/>
<path d="M25.0452 173.812L31.3779 192.415L31.4509 191.743L31.9011 193.967L45.2237 259.543L45.2906 259.858L89.5714 194.815L93.6533 188.822L25.0452 173.812Z" fill="#15B64C"/>
<path d="M113.388 247.666L128 230.384L126.114 225.822L117.664 205.401L113.388 247.666Z" fill="#15B64C"/>
<path d="M24.887 120.609V173.152L93.4404 188.149L55.8392 136.122L26.128 95.0017L24.887 120.609Z" fill="#15B64C"/>
<path d="M99.5424 159.863L117.251 202.638L123.322 217.308L127.806 228.142L113.704 91.6023L104.366 136.637L99.5424 159.863Z" fill="#15B64C"/>
<path d="M88.0566 95.4503L97.9846 151.156L99.2135 158.082L104.117 134.456L113.388 89.7725L88.1174 95.3412L88.1722 95.4563L88.0566 95.4503Z" fill="#15B64C"/>
<path d="M26.1762 93.9474L35.6967 107.121L94.4072 188.361L94.7235 188.434L94.608 188.604L106.264 201.541L98.8541 159.96L98.8359 159.918L98.842 159.888L97.5584 152.671L87.3444 95.4199L26.2371 92.6265L26.1762 93.9474Z" fill="#15B64C"/>
<path d="M26.6637 92.0385L72.1003 94.117L87.1201 94.8017L78.4087 76.1322L72.2645 62.989L49.0504 71.7633L26.6637 92.0385Z" fill="#15B64C"/>
<path d="M73.238 63.4739L79.2423 76.3323L87.8563 94.7715L113.029 89.227L73.238 63.4739Z" fill="#15B64C"/>
<path d="M0.15205 115.18L24.1996 93.3716L25.7204 91.9961L26.4687 91.3477L26.4748 91.3053L48.4053 71.3512L46.1666 66.3763L42.5348 58.311L4.54424 89.5117L0.15205 115.18Z" fill="#15B64C"/>
<path d="M38.2525 47.1494L46.9396 66.4552L49.0383 71.1089L71.6562 62.5589L38.2525 47.1494Z" fill="#15B64C"/>
<path d="M37.9356 12.7676V46.3194L55.255 54.3059L70.2869 61.2501L87.1865 38.9025L66.7343 24.2626L37.9356 12.7676Z" fill="#15B64C"/>
<path d="M67.3852 23.9474L81.9609 34.3819L87.1074 38.054L79.7526 7.90771L67.3852 23.9474Z" fill="#15B64C"/>
<path d="M38.222 12.2161L66.7956 23.6262L79.376 7.31389L54.0753 0L38.222 12.2161Z" fill="#15B64C"/>
<path d="M64.9881 21.4994C64.2826 21.4994 63.7106 20.9296 63.7106 20.2269C63.7106 19.5241 64.2826 18.9543 64.9881 18.9543C65.6937 18.9543 66.2656 19.5241 66.2656 20.2269C66.2656 20.9296 65.6937 21.4994 64.9881 21.4994Z" fill="white"/>
<path d="M110.243 94.4747C109.537 94.4747 108.965 93.905 108.965 93.2022C108.965 92.4994 109.537 91.9297 110.243 91.9297C110.949 91.9297 111.521 92.4994 111.521 93.2022C111.521 93.905 110.949 94.4747 110.243 94.4747Z" fill="white"/>
<path d="M46.5076 252.453C45.8021 252.453 45.2301 251.884 45.2301 251.181C45.2301 250.478 45.8021 249.908 46.5076 249.908C47.2132 249.908 47.7852 250.478 47.7852 251.181C47.7852 251.884 47.2132 252.453 46.5076 252.453Z" fill="white"/>
<path d="M72.5868 395.435C71.8812 395.435 71.3092 394.865 71.3092 394.162C71.3092 393.459 71.8812 392.89 72.5868 392.89C73.2923 392.89 73.8643 393.459 73.8643 394.162C73.8643 394.865 73.2923 395.435 72.5868 395.435Z" fill="white"/>
<path d="M33.1904 114.095V119.798" stroke="white" stroke-miterlimit="10"/>
<path d="M30.3254 116.949H36.0498" stroke="white" stroke-miterlimit="10"/>
</g>
<defs>
<clipPath id="clip0_715_4620">
<rect width="128" height="421" fill="white" transform="matrix(-1 0 0 1 128 0)"/>
</clipPath>
</defs>
</svg>
