<svg width="113" height="342" viewBox="0 0 113 342" fill="none" xmlns="http://www.w3.org/2000/svg">
<path d="M28.8039 10.3861L42.4673 0L56.1307 6.30586L62.4085 49.3341L76.0719 56.7527L87.8889 101.265L97.4902 141.325L113 192.514L97.4902 196.965L88.9967 165.065L80.134 130.939L86.781 206.61L82.719 225.527L74.5948 227.382L67.5784 266.701L63.5163 292.295V308.245L73.1176 337.549H67.5784V340.516L62.7778 342H38.0359L33.2353 336.436H25.8497L24.0033 312.325L32.4967 259.282L31.0196 239.252L25.1111 227.382L7.01634 220.334L8.86275 192.514L0 191.401L1.10784 122.408L10.3399 62.3167L26.219 47.4794L28.8039 10.3861Z" fill="#15B64C" style="mix-blend-mode:color"/>
</svg>
