<?xml version="1.0" encoding="UTF-8"?><svg id="Calque_2" xmlns="http://www.w3.org/2000/svg" xmlns:xlink="http://www.w3.org/1999/xlink" viewBox="0 0 106.98 117.52"><defs><style>.cls-1{fill:none;}.cls-2{clip-path:url(#clippath);}.cls-3{fill:#1d1d1b;}</style><clipPath id="clippath"><rect class="cls-1" width="106.98" height="117.52"/></clipPath></defs><g id="Calque_1-2"><g class="cls-2"><path class="cls-3" d="m66.5,63.16c-.61.67-.37,1.27.07,1.79.96,1.14,3.25,1.12,4.24,0,.49-.56.52-1.33.07-1.85-1.78,1.63-3.17,1.66-4.38.05m-13.14,5.94c-.87.5-1.19,1.87-.44,2.71,1.04,1.16,2.37,1.43,3.74,1.25.8-.1,1.66-.55,2.26-1.09,1.03-.93.54-2.69-.75-3.12-1.86,1.96-2.94,2.01-4.81.26m-13.08-7.69c-1.46.98-1.31,3.31.04,4.54,1.55,1.42,4.5,1,5.66-.77.87-1.32.38-3.32-.92-3.81,0,2.1-.64,2.96-2.32,3.13-1.29.13-2.03-.81-2.45-3.09m-15.15,8.82c-.27.64-.57,1.26-.79,1.91-.08.23-.06.61.08.77.52.57,1.04,1.22,1.69,1.59,1.68.93,3.38.54,5.07-.15.86-.35,1.22-.94,1.24-1.8.01-.9-.35-1.64-1.1-2.28-.55,1.43-1.54,2.2-2.92,2.22-1.49.02-2.41-.94-3.27-2.26m54.34-3.64c-1.07,1.01-1,3.06.17,3.79,1.6,1,3.22,1.81,5.22.82,1.11-.55,1.9-1.03,2.03-2.41.16-1.66-.68-2.87-2.38-3.01.06,2.25-.53,3.15-2.22,3.42-1.27.2-2.35-.78-2.82-2.61m-31.93-9.36c-1.01,0-1.97-.1-2.89.05-.34.06-.59.69-1,1.2.76.12,1.24.19,1.71.28,1.1.2,1.9.81,2.29,1.85.39,1.03.81,2.07,1.01,3.15.21,1.13-.53,2.05-1.17,2.86-1,1.27-2.34,2.15-3.92,2.45-1.53.29-2.95-.25-4.15-1.21-.67-.53-1.3-1.17-1.77-1.87-1.06-1.6-.78-3.23.11-4.82.1-.17.08-.6-.03-.67-1.07-.64-1.54-1.71-2.04-2.75-.21-.43-.48-.64-.87-.47-.3.12-.69.42-.73.69-.47,2.97-2.27,4.67-5.05,5.48-.16.05-.31.11-.46.17-.02,0-.03.04-.08.1,0,.26.05.56,0,.85-.18.94-.1,1.62,1.11,1.74.39.04.73.6,1.1.9.55.45,1.09.93,1.68,1.32,1.26.84,2.22,1.92,2.65,3.37.16.55.07,1.26-.12,1.82-.84,2.49-3.01,3.99-5.69,3.92-1.32-.03-2.65-.14-3.96-.35-2.09-.34-4.16-2.8-3.53-5.19.32-1.2.81-2.15,1.69-2.95.19-.18.36-.39.64-.7-1.86-.1-2.92-1.09-3.52-2.67-.6-1.6-.28-3.02.86-4.35-2.14-.48-3.57-1.71-4.38-3.54-1.32.15-2.59.39-3.87.42-3.58.08-6.72-1.15-9.32-3.59-1.56-1.47-2.84-3.16-3.17-5.45-.24-1.65-.8-3.23-.66-4.96.15-1.93.6-3.72,1.53-5.43,1.63-2.99,4.15-4.9,7.24-6.09,1.7-.65,3.52-.79,5.33-.51.97.15,1.92.47,2.89.67.18.04.4-.13.6-.2-.12-.24-.19-.64-.38-.71-.81-.29-1.64-.54-2.48-.68-.65-.11-1.33-.07-1.99,0-.67.07-.95-.25-1.03-.84-.34-2.58-.32-5.14.43-7.66,1.2-4.05,3.44-7.33,7.07-9.57.97-.6,1.92-1.25,2.96-1.68,2.51-1.05,5.14-1.38,7.86-1.1,1.63.17,3.21.52,4.68,1.21,1.19.56,2.31,1.28,3.47,1.9.27.14.6.16.91.24-.12-.3-.17-.74-.39-.88-1-.66-2.03-1.29-3.1-1.83-.43-.22-.69-.38-.38-.81.8-1.11,1.57-2.26,2.47-3.29.95-1.09,1.97-2.15,3.1-3.05,1.05-.83,2.25-1.48,3.44-2.11,2.25-1.2,4.65-1.75,7.21-1.84,2-.07,3.98-.06,5.92.41,2.05.49,4.05,1.13,5.79,2.41.6.44,1.31.75,1.93,1.17,1.95,1.33,3.54,3.01,4.76,5.04.41.69.83,1.38,1.27,2.05.95,1.46,1.34,3.12,1.81,4.76.07.25.34.45.52.67.13-.26.43-.57.38-.77-.36-1.27-.8-2.52-1.22-3.77-.03-.1-.08-.19-.19-.48,1.31-.29,2.56-.75,3.81-.8,1.63-.06,3.29.09,4.89.37,1.01.17,2.02.62,2.91,1.14,1.55.9,2.87,2.08,4.04,3.46,1.97,2.33,2.71,5.06,2.81,8.03.02.73-.04,1.47-.18,2.18-.05.25-.42.53-.71.63-.89.31-1.81.52-2.7.83-.21.07-.35.37-.52.57.28.08.64.3.83.21,1.32-.67,2.73-.81,4.17-.91,2.5-.18,4.78.54,7.03,1.56,2.05.94,3.61,2.46,5.04,4.14,1.69,2,2.61,4.34,2.85,6.94.1,1.09.22,2.19.25,3.28.01.44-.21.89-.26,1.35-.26,2.65-1.41,4.96-2.96,7.03-1.3,1.74-2.97,3.17-4.95,4.1-1.73.81-3.51,1.49-5.49,1.43-1.02-.03-2.04.07-3.06.1-.65.02-1.04.4-1.46.87-.78.87-1.03,1.76-.94,2.95.06.82-.51,1.7-.84,2.66,1.21.57,1.81,1.96,2.54,3.24.94,1.64.82,3.16-.25,4.78-.85,1.29-2.12,1.69-3.39,2.2-.65.26-1.31.56-1.99.64-3.12.38-5.6-.81-7.45-3.32-.62-.83-.44-1.83-.38-2.77.05-.7.13-1.42.32-2.09.35-1.22,1.23-2.04,2.37-2.52.64-.27,1.34-.39,2.01-.59.17-.05.33-.15.49-.23-.17-.54-.3-1.06-.5-1.56-.06-.15-.24-.28-.4-.35-1.47-.65-2.81-1.45-3.81-2.77-.67-.88-2.19-.68-2.65.33-.5,1.1-1.38,1.77-2.51,2.27.4.5.79.94,1.14,1.4.97,1.31.44,3.53-.91,4.41-2,1.31-4,.92-5.97.12-1.89-.77-2.45-3.92-.49-4.82.86-.4,1.4-1.15,1.9-1.92.09-.14.08-.4,0-.56-.26-.56-.56-1.1-.83-1.62-1.35.12-2.68.27-4.02.35-.56.03-1.13-.15-1.69-.12-1.11.06-1.41.66-.85,1.6.88,1.47,1.05,2.99.16,4.48-.32.53-.93.87-1.4,1.31-.17.15-.33.32-.49.48.19.17.36.35.56.5.95.73,2.06,1.33,2.84,2.22,1.05,1.19.69,3.48-.57,4.46-.86.67-1.75,1.43-2.76,1.78-2.29.81-4.61.73-6.62-.81-1.52-1.16-1.71-3.66-.49-5.15.49-.6,1.14-1.07,1.59-1.69.5-.68.89-1.44,1.25-2.21.07-.14-.23-.45-.34-.69-.23-.51-.59-1.02-.63-1.55-.05-.64-.31-.76-.85-.8-1.9-.15-3.63-1.53-4.17-3.34-.14-.45-.17-.94-.26-1.49"/><path class="cls-3" d="m79.99,91.73c.02,1.15.59,1.69,1.81,1.69,1.11,0,2.11-.81,2.12-1.72,0-1.09-.89-2.05-1.91-2.02-1.05.02-2.03,1.01-2.01,2.05m-59.61,25.61c-.5-14.19.61-28.29.46-42.63.61.81,1.08,1.42,1.54,2.04.68.94,1.66,1.5,2.74,1.58,1.84.15,3.74.29,5.55.03,1.42-.2,2.85-.87,3.88-2.03.38-.43.62-.99,1.05-1.72.04.83.07,1.43.1,2.04.1,2.62.19,5.25.29,7.87.04.89.13,1.79.15,2.68.03,1.4.08,1.46,1.58,1.3-.25-7.09-.49-14.19-.75-21.54,1.85,1.78,3.82,2.74,6.2,2.85,2.63.13,4.1-1.56,5.67-3.39v20.09c1.22.26,1.32.13,1.27-1.07-.08-2.04-.09-4.08-.11-6.11-.01-1.44,0-2.89,0-4.33,0-.32.07-.63.14-1.16,1.75,1.89,3.69,2.86,6.15,2.68,2.45-.18,4.26-1.34,5.8-3.47.06.47.12.77.12,1.06,0,3.09,0,6.19.01,9.28,0,1.01.08,2.01.18,3.01.02.19.34.5.5.49.21-.01.53-.26.58-.46.09-.36.02-.76.02-1.14,0-2.59.02-5.17.03-7.76,0-3.01,0-6.03.01-9.04,0-.83.1-1.67.22-2.59,1.06,1.88,2.86,2.27,4.72,2.56,2.05.33,3.63-.44,5.03-2.07,0,.51,0,1.01,0,1.52-.02,4.68-.04,9.36-.06,14.04,0,.9-.04,1.8,0,2.69,0,.22.25.42.39.63.24-.2.63-.37.68-.61.15-.77.21-1.56.24-2.35.12-3.4.23-6.8.34-10.2.01-.36.06-.72.17-1.11,1.57,2.89,4.14,4.44,7.19,4.53,2.96.09,5.82-.84,7.75-3.65.06.63.14,1.25.17,1.88.09,2.18.19,4.35.24,6.53.04,1.63-.02,3.26,0,4.89.03,1.99.11,3.97.15,5.96.05,2.67.1,5.34.12,8.01,0,.97-.38,1.32-1.45,1.34-1.43.03-2.87,0-4.31,0-1.58,0-1.91.34-1.88,1.92,0,.22.05.43.09.64.21,1.32-.31,2.02-1.62,2.12-.51.04-1.03.02-1.54.07-.46.04-.95.2-.81.77.06.24.52.38.8.56.02.01.06,0,.08,0,.49.15,1.36.25,1.4.48.09.58-.02,1.35-.36,1.8-.58.78-.73,1.36-.32,2.33.65,1.52.64,3.16-.4,4.59-.32.43-.82.9-1.31.99-1.1.22-2.24.24-3.37.29-1,.04-2.01-.03-3.01,0-2.98.09-5.96.25-8.95.28-7.87.09-15.74.15-23.61.16-6.51,0-13.02-.09-19.53-.15-.11,0-.22-.01-.42-.03"/></g></g></svg>